<?xml version="1.0" encoding="UTF-8" standalone="no"?><!DOCTYPE svg PUBLIC "-//W3C//DTD SVG 1.1//EN" "http://www.w3.org/Graphics/SVG/1.1/DTD/svg11.dtd"><svg width="100%" height="100%" viewBox="0 0 1280 800" version="1.1" xmlns="http://www.w3.org/2000/svg" xmlns:xlink="http://www.w3.org/1999/xlink" xml:space="preserve" xmlns:serif="http://www.serif.com/" style="fill-rule:evenodd;clip-rule:evenodd;stroke-linecap:round;stroke-linejoin:round;stroke-miterlimit:1.5;"><g><path d="M44.208,234.363c422.281,195.01 825.765,218.721 1212.72,91.834" style="fill:none;stroke:#008ea3;stroke-width:35.4px;"/><path d="M435.414,37.88c295.66,237.821 230.127,484.079 -21.965,724.24" style="fill:none;stroke:#bc00bc;stroke-width:35.4px;"/><path d="M44.208,234.363c415.448,37.448 754.882,152.872 866.15,502.349" style="fill:none;stroke:#0037a3;stroke-width:35.4px;"/><path d="M906.689,66.353c-67.963,275.374 -346.244,435.982 -801.332,500.111" style="fill:none;stroke:#f6d43d;stroke-width:35.4px;"/><path d="M413.449,762.12c37.244,-345.658 329.722,-484.624 843.483,-435.923" style="fill:none;stroke:#0037a3;stroke-width:35.4px;"/><path d="M906.689,66.353c-350.284,253.425 -336.505,475.47 3.664,669.381" style="fill:none;stroke:#008ea3;stroke-width:35.4px;"/><path d="M105.357,566.464c406.608,-233.401 774.467,-219.735 1107.74,14.44" style="fill:none;stroke:#bc00bc;stroke-width:35.4px;"/><path d="M435.414,37.88c21.765,280.169 265.674,467.575 777.686,543.024" style="fill:none;stroke:#f6d43d;stroke-width:35.4px;"/></g></svg>